<svg width="10" height="10" viewBox="0 0 10 10" fill="none" xmlns="http://www.w3.org/2000/svg">
<path fill-rule="evenodd" clip-rule="evenodd" d="M3.11041 0.444172C3.59916 0.421672 3.75499 0.416672 4.99999 0.416672C6.24499 0.416672 6.40082 0.422088 6.88916 0.444172C7.37749 0.466255 7.71082 0.544172 8.00249 0.657088C8.30791 0.772505 8.58499 0.952922 8.81416 1.18625C9.04749 1.415 9.22749 1.69167 9.34249 1.9975C9.45582 2.28917 9.53332 2.6225 9.55582 3.11C9.57832 3.59959 9.58332 3.75542 9.58332 5C9.58332 6.245 9.57791 6.40084 9.55582 6.88959C9.53374 7.37709 9.45582 7.71042 9.34249 8.00209C9.22749 8.30796 9.04719 8.58509 8.81416 8.81417C8.58499 9.0475 8.30791 9.2275 8.00249 9.3425C7.71082 9.45584 7.37749 9.53334 6.88999 9.55584C6.40082 9.57834 6.24499 9.58334 4.99999 9.58334C3.75499 9.58334 3.59916 9.57792 3.11041 9.55584C2.62291 9.53375 2.28957 9.45584 1.99791 9.3425C1.69204 9.22749 1.41491 9.04719 1.18582 8.81417C0.952648 8.58528 0.772204 8.30829 0.657073 8.0025C0.544156 7.71084 0.466656 7.3775 0.444156 6.89C0.421656 6.40042 0.416656 6.24459 0.416656 5C0.416656 3.755 0.422073 3.59917 0.444156 3.11084C0.46624 2.6225 0.544156 2.28917 0.657073 1.9975C0.772374 1.69171 0.952956 1.41472 1.18624 1.18584C1.41501 0.952714 1.69185 0.772273 1.99749 0.657088C2.28916 0.544172 2.62249 0.466672 3.10999 0.444172H3.11041ZM6.85207 1.26917C6.36874 1.24709 6.22374 1.24251 4.99999 1.24251C3.77624 1.24251 3.63124 1.24709 3.14791 1.26917C2.70082 1.28959 2.45832 1.36417 2.29666 1.42709C2.08291 1.51042 1.92999 1.60917 1.76957 1.76959C1.61751 1.91753 1.50048 2.09762 1.42707 2.29667C1.36416 2.45834 1.28957 2.70084 1.26916 3.14792C1.24707 3.63125 1.24249 3.77625 1.24249 5C1.24249 6.22375 1.24707 6.36875 1.26916 6.85209C1.28957 7.29917 1.36416 7.54167 1.42707 7.70334C1.50041 7.90209 1.61749 8.0825 1.76957 8.23042C1.91749 8.3825 2.09791 8.49959 2.29666 8.57292C2.45832 8.63584 2.70082 8.71042 3.14791 8.73084C3.63124 8.75292 3.77582 8.7575 4.99999 8.7575C6.22416 8.7575 6.36874 8.75292 6.85207 8.73084C7.29916 8.71042 7.54166 8.63584 7.70332 8.57292C7.91707 8.48959 8.06999 8.39084 8.23041 8.23042C8.38249 8.0825 8.49957 7.90209 8.57291 7.70334C8.63582 7.54167 8.71041 7.29917 8.73082 6.85209C8.75291 6.36875 8.75749 6.22375 8.75749 5C8.75749 3.77625 8.75291 3.63125 8.73082 3.14792C8.71041 2.70084 8.63582 2.45834 8.57291 2.29667C8.48957 2.08292 8.39082 1.93001 8.23041 1.76959C8.08246 1.61753 7.90237 1.50051 7.70332 1.42709C7.54166 1.36417 7.29916 1.28959 6.85207 1.26917V1.26917ZM4.41457 6.41292C4.74151 6.54902 5.10556 6.56739 5.44454 6.46489C5.78352 6.36239 6.0764 6.14539 6.27316 5.85094C6.46992 5.55649 6.55835 5.20287 6.52334 4.85046C6.48834 4.49806 6.33207 4.16874 6.08124 3.91875C5.92134 3.75895 5.72799 3.63659 5.51513 3.56048C5.30226 3.48437 5.07517 3.45641 4.8502 3.47859C4.62522 3.50078 4.40797 3.57258 4.21407 3.68881C4.02018 3.80504 3.85447 3.96281 3.72887 4.15078C3.60327 4.33874 3.5209 4.55221 3.4877 4.77582C3.45451 4.99943 3.4713 5.22763 3.53688 5.44397C3.60246 5.66031 3.71519 5.85943 3.86696 6.02697C4.01872 6.19452 4.20575 6.32633 4.41457 6.41292ZM3.33416 3.33417C3.55292 3.11541 3.81262 2.94188 4.09845 2.82349C4.38427 2.7051 4.69062 2.64416 4.99999 2.64416C5.30936 2.64416 5.61571 2.7051 5.90153 2.82349C6.18736 2.94188 6.44706 3.11541 6.66582 3.33417C6.88458 3.55293 7.05811 3.81264 7.17651 4.09846C7.2949 4.38429 7.35583 4.69063 7.35583 5C7.35583 5.30938 7.2949 5.61572 7.17651 5.90155C7.05811 6.18737 6.88458 6.44708 6.66582 6.66584C6.22402 7.10764 5.6248 7.35585 4.99999 7.35585C4.37518 7.35585 3.77596 7.10764 3.33416 6.66584C2.89235 6.22403 2.64415 5.62481 2.64415 5C2.64415 4.3752 2.89235 3.77598 3.33416 3.33417V3.33417ZM7.87832 2.995C7.93253 2.94387 7.97593 2.88237 8.00595 2.81416C8.03597 2.74595 8.05199 2.67241 8.05308 2.59789C8.05417 2.52338 8.04029 2.4494 8.01227 2.38034C7.98426 2.31129 7.94267 2.24855 7.88997 2.19585C7.83728 2.14316 7.77454 2.10157 7.70549 2.07355C7.63643 2.04554 7.56245 2.03166 7.48793 2.03275C7.41342 2.03383 7.33988 2.04986 7.27167 2.07988C7.20346 2.1099 7.14196 2.15329 7.09082 2.2075C6.99137 2.31293 6.93692 2.45297 6.93903 2.59789C6.94114 2.74281 6.99965 2.8812 7.10214 2.98369C7.20462 3.08617 7.34301 3.14468 7.48793 3.1468C7.63285 3.14891 7.77289 3.09446 7.87832 2.995V2.995Z" fill="#FF0000"/>
</svg>
