<svg width="10" height="10" viewBox="0 0 10 10" fill="none" xmlns="http://www.w3.org/2000/svg">
<path fill-rule="evenodd" clip-rule="evenodd" d="M3.92876 3.73708H5.47626V4.50791C5.69918 4.06458 6.27084 3.66624 7.12959 3.66624C8.77584 3.66624 9.16668 4.54875 9.16668 6.16791V9.16666H7.50001V6.53666C7.50001 5.61458 7.27709 5.09458 6.70959 5.09458C5.92251 5.09458 5.59543 5.65499 5.59543 6.53624V9.16666H3.92876V3.73708V3.73708ZM1.07084 9.09583H2.73751V3.66624H1.07084V9.09583V9.09583ZM2.97626 1.89583C2.97632 2.03553 2.94862 2.17384 2.89475 2.30274C2.84089 2.43164 2.76195 2.54854 2.66251 2.64666C2.46101 2.84692 2.18826 2.95902 1.90418 2.95833C1.62059 2.95814 1.34847 2.84633 1.14668 2.64708C1.0476 2.54863 0.968921 2.43159 0.915153 2.30267C0.861386 2.17376 0.833585 2.03551 0.833344 1.89583C0.833344 1.61375 0.945844 1.34374 1.14709 1.14458C1.34871 0.945061 1.62094 0.833204 1.90459 0.833328C2.18876 0.833328 2.46126 0.945412 2.66251 1.14458C2.86334 1.34374 2.97626 1.61375 2.97626 1.89583Z" fill="#FF0000"/>
</svg>
