<?xml version="1.0" encoding="utf-8"?>
<!-- Generator: Adobe Illustrator 26.0.3, SVG Export Plug-In . SVG Version: 6.00 Build 0)  -->
<svg version="1.1" id="Camada_1" xmlns="http://www.w3.org/2000/svg" xmlns:xlink="http://www.w3.org/1999/xlink" x="0px" y="0px"
	 viewBox="0 0 128 48.35" style="enable-background:new 0 0 128 48.35;" xml:space="preserve">
<style type="text/css">
	.st0{fill:#FFFFFF;}
	.st1{fill:#E30613;}
	.st2{fill:#B2B2B2;}
	.st3{fill-rule:evenodd;clip-rule:evenodd;fill:#164194;}
	.st4{fill:#507538;}
	.st5{fill-rule:evenodd;clip-rule:evenodd;fill:#AFCA0B;}
	.st6{fill:#AFCA0B;}
	.st7{fill:#706F6F;}
	.st8{fill:#F7A941;}
	.st9{fill-rule:evenodd;clip-rule:evenodd;fill:#3D5794;}
	.st10{fill:#BA182A;}
	.st11{fill:#0A67B1;}
	.st12{fill:#90BFE2;}
	.st13{fill:#D91419;}
	.st14{fill:#BAB7B6;}
	.st15{fill:#D82925;}
	.st16{fill:#E62A27;}
	.st17{fill-rule:evenodd;clip-rule:evenodd;fill:#E30613;}
	.st18{fill:#010202;}
	.st19{fill:none;}
	.st20{fill-rule:evenodd;clip-rule:evenodd;fill:#010202;}
	.st21{fill-rule:evenodd;clip-rule:evenodd;}
	.st22{fill:none;stroke:#FFFFFF;stroke-miterlimit:10;}
	.st23{fill:#ADC816;stroke:#ADC816;stroke-miterlimit:10;}
	.st24{fill:#144391;stroke:#144391;stroke-miterlimit:10;}
	.st25{fill:#E20717;stroke:#E20717;stroke-miterlimit:10;}
	.st26{fill:#949393;}
	.st27{fill:#E41513;}
	.st28{fill:#E10818;}
	.st29{fill:#B0B0B0;}
	.st30{fill:#4B4A4B;}
	.st31{fill:#164194;}
	.st32{fill:#575756;}
	.st33{fill:#10458C;}
	.st34{fill-rule:evenodd;clip-rule:evenodd;fill:#1E1E1C;}
	.st35{fill-rule:evenodd;clip-rule:evenodd;fill:#134391;}
	.st36{opacity:0.75;clip-path:url(#SVGID_00000127755558481868462840000000585521362300126372_);}
	.st37{opacity:0.7;clip-path:url(#SVGID_00000070810274560297043700000010362661923643771796_);}
	.st38{clip-path:url(#SVGID_00000116932766347378051690000008331928710612358331_);}
	.st39{clip-path:url(#SVGID_00000175317350902323510200000002411540805266437551_);}
	.st40{clip-path:url(#SVGID_00000125564412510130843300000006861284480543610795_);}
	.st41{opacity:0.3;clip-path:url(#SVGID_00000070810274560297043700000010362661923643771796_);}
	.st42{clip-path:url(#SVGID_00000023976417601052458650000015441207432746989721_);}
	.st43{filter:url(#Adobe_OpacityMaskFilter);}
	.st44{clip-path:url(#SVGID_00000074411597602386119510000009021782681364428457_);}
	.st45{clip-path:url(#SVGID_00000110459396197562077960000011873087555017147830_);}
	
		.st46{clip-path:url(#SVGID_00000074411597602386119510000009021782681364428457_);mask:url(#SVGID_00000011748688424309994450000009086603184930106542_);}
	.st47{filter:url(#Adobe_OpacityMaskFilter_00000078014112973642281980000012342790326980820364_);}
	.st48{enable-background:new    ;}
	.st49{clip-path:url(#SVGID_00000043430907729229147950000015512090844273304243_);}
	.st50{clip-path:url(#SVGID_00000073715713270738853950000010142753075992918186_);}
	.st51{filter:url(#Adobe_OpacityMaskFilter_00000165948518272472115360000005446430663986794941_);}
	.st52{clip-path:url(#SVGID_00000150788880230128427870000004398063429343390393_);}
	.st53{opacity:0.75;clip-path:url(#SVGID_00000114050801071065777180000003886347932541044131_);}
	.st54{opacity:0.7;clip-path:url(#SVGID_00000024714148658223418590000004572265985298402718_);}
	.st55{clip-path:url(#SVGID_00000023962901682665029390000006410567608268488123_);}
	.st56{clip-path:url(#SVGID_00000141429880103381740100000009156266768267434659_);}
	.st57{clip-path:url(#SVGID_00000032614146627024048050000012011255294157684610_);}
	.st58{opacity:0.3;clip-path:url(#SVGID_00000024714148658223418590000004572265985298402718_);}
	.st59{clip-path:url(#SVGID_00000070096240367040493020000016111482515082380942_);}
	.st60{filter:url(#Adobe_OpacityMaskFilter_00000039844851323486128830000010865681379487520394_);}
	.st61{clip-path:url(#SVGID_00000132061713746977250930000007769739529516955827_);}
	.st62{clip-path:url(#SVGID_00000023999359921167558570000017706298685402839697_);}
	
		.st63{clip-path:url(#SVGID_00000132061713746977250930000007769739529516955827_);mask:url(#SVGID_00000076565567114601614640000001374160135028001152_);}
	.st64{filter:url(#Adobe_OpacityMaskFilter_00000080895793372291281070000007935837255634970797_);}
	.st65{clip-path:url(#SVGID_00000139290629255470517540000017880710306398848907_);}
	.st66{clip-path:url(#SVGID_00000021105602977654464030000012840368817692506019_);}
	.st67{filter:url(#Adobe_OpacityMaskFilter_00000101790651660322911900000007955837514355014016_);}
	.st68{clip-path:url(#SVGID_00000066513882180154615440000011581025077474600590_);}
	.st69{fill:#353535;}
	.st70{fill:#504F4F;}
	.st71{fill:#E30617;}
	.st72{fill:#0E3C55;}
	.st73{fill:#ED6D24;}
	.st74{opacity:0.8;}
	.st75{clip-path:url(#SVGID_00000075855823031023201040000017186971014482108559_);}
	.st76{clip-path:url(#SVGID_00000143587704166398208710000015319962927558826681_);}
	.st77{fill:#39486A;}
	.st78{clip-path:url(#SVGID_00000095296313303502544440000010313291774187230641_);fill:#5D8BB3;}
	.st79{clip-path:url(#SVGID_00000095296313303502544440000010313291774187230641_);fill:#39486A;}
	.st80{clip-path:url(#SVGID_00000095296313303502544440000010313291774187230641_);fill:#40ACB0;}
	.st81{clip-path:url(#SVGID_00000095296313303502544440000010313291774187230641_);fill:#F1B14F;}
	.st82{clip-path:url(#SVGID_00000095296313303502544440000010313291774187230641_);}
	.st83{fill:#F1B14F;}
	.st84{fill:#EB5B28;}
	.st85{fill:#EB5E2C;}
	.st86{fill:#1785C3;}
	.st87{fill:#ED6D37;}
	.st88{fill:#020203;}
	.st89{fill:#54BCE6;}
	.st90{fill-rule:evenodd;clip-rule:evenodd;fill:#020203;}
	.st91{fill-rule:evenodd;clip-rule:evenodd;fill:#FFFFFF;}
	.st92{opacity:0.8;fill:url(#SVGID_00000099623917577334140920000006572761772776859806_);}
	.st93{fill:#E30B17;}
	.st94{opacity:0.8;fill:url(#SVGID_00000137815321045465660180000011763841897869287571_);}
	.st95{fill-rule:evenodd;clip-rule:evenodd;fill:#E30B17;}
	.st96{opacity:0.8;fill:url(#SVGID_00000145753357527797941050000015954090963619073211_);}
	.st97{opacity:0.8;fill:url(#SVGID_00000108292442615221758470000006003857302938896021_);}
	.st98{opacity:0.8;fill:url(#SVGID_00000050642893743355993360000002243506096188055480_);}
	.st99{fill:#3C1F12;}
	.st100{fill-rule:evenodd;clip-rule:evenodd;fill:#3C1F12;}
</style>
<g>
	<g>
		<g>
			<path class="st0" d="M16.99,34.05h-4.62V15.78c0-1-0.39-1.51-1.15-1.51H8.46v19.77H3.54V7.41L8.36,4.9v6.97
				c0.7-0.44,1.71-0.65,3.01-0.65c1.71,0,2.93,0.15,3.66,0.45c1.3,0.5,1.96,1.52,1.96,3.06V34.05z M35.45,29.88
				c0,1.57-0.48,2.71-1.45,3.41c-1.1,0.8-2.99,1.21-5.67,1.21c-5.02,0-7.53-1.54-7.53-4.62v-14.1c0-3.11,2.51-4.67,7.53-4.67
				c2.67,0,4.56,0.4,5.67,1.2c0.97,0.74,1.45,1.89,1.45,3.46V29.88z M30.28,30.38V15.23c0-0.84-0.72-1.25-2.16-1.25
				c-1.41,0-2.11,0.42-2.11,1.25v15.15c0,0.84,0.7,1.25,2.11,1.25C29.56,31.64,30.28,31.22,30.28,30.38 M47.34,25.52v4.62
				c0,1.04-0.65,1.56-1.96,1.56c-0.57,0-1.04-0.17-1.41-0.5c-0.37-0.33-0.55-0.7-0.55-1.11v-3.11h-4.51v3.11
				c0,1.27,0.48,2.31,1.45,3.11c1.14,0.87,2.79,1.3,4.97,1.3c2.38,0,4.1-0.47,5.17-1.4c1.2-1.07,1.81-2.93,1.81-5.57v-2.16
				c0-1.2-0.5-2.19-1.51-2.96c-1.14-0.87-2.78-1.31-4.92-1.31l-0.5,0.05c-1,0-1.51-0.53-1.51-1.61v-3.86c0-1.04,0.64-1.56,1.91-1.56
				c0.6,0,1.09,0.17,1.46,0.5c0.37,0.33,0.55,0.7,0.55,1.1v3.11h4.52v-3.11c0-1.27-0.49-2.29-1.46-3.06
				c-1.14-0.9-2.79-1.35-4.97-1.35c-2.21,0-3.85,0.4-4.92,1.2c-1.21,0.9-1.89,2.46-2.06,4.67c-0.04,0.3-0.04,1.35,0,3.16h0.05
				c0.5,2.41,2.63,3.61,6.37,3.61l0.45-0.05C46.82,23.91,47.34,24.45,47.34,25.52 M64.5,14.43H62.7v19.62h-5.07V14.43h-2.16v-2.86
				h2.16V7.86L62.7,5v6.57h1.81V14.43z"/>
		</g>
		<g>
			<path class="st0" d="M78.85,33.9c-1.04,0.4-2.62,0.6-4.77,0.6c-4.55,0-6.82-1.31-6.82-3.92V11.57h4.62v18.36
				c0,0.37,0.24,0.68,0.7,0.95c0.47,0.27,1,0.4,1.61,0.4c1.51,0,2.26-0.45,2.26-1.35V11.57h4.57v18.77
				c0.37,0.63,1.12,0.95,2.25,0.95c1.47,0,2.21-0.45,2.21-1.35V11.57h4.72v18.92c0,1.54-0.56,2.59-1.68,3.16
				c-1.12,0.57-2.9,0.85-5.34,0.85C81.39,34.5,79.95,34.3,78.85,33.9 M107.3,30.08c0,1.27-0.5,2.31-1.51,3.11
				c-1.14,0.87-2.78,1.31-4.92,1.31c-2.41,0-4.15-0.47-5.22-1.41c-1.21-1.07-1.81-2.93-1.81-5.57v-9.18c0-2.64,0.6-4.52,1.81-5.62
				c1.07-0.94,2.81-1.4,5.22-1.4c2.14,0,3.78,0.45,4.92,1.35c1,0.77,1.51,1.79,1.51,3.06v7.98h-8.43v6.42
				c0,1.04,0.64,1.55,1.91,1.55c0.6,0,1.08-0.17,1.43-0.5c0.35-0.33,0.53-0.7,0.53-1.11v-3.11h4.57V30.08z M102.73,20.85v-5.12
				c0-0.4-0.18-0.77-0.53-1.1c-0.35-0.33-0.83-0.5-1.43-0.5c-1.27,0-1.91,0.52-1.91,1.56v5.17H102.73z M125.06,29.88
				c0,3.08-2.49,4.62-7.48,4.62c-2.57,0-4.4-0.35-5.47-1.05c-0.94-0.64-1.4-1.71-1.4-3.21V7.41l4.62-2.51v7.22
				c0.54-0.4,1.05-0.6,1.56-0.6c0.23,0,0.72-0.03,1.46-0.08c0.73-0.05,1.32-0.07,1.75-0.07c3.31,0,4.97,1.34,4.97,4.01V29.88z
				 M119.89,30.38v-14.8c0-0.77-0.75-1.16-2.26-1.16c-1.24,0-1.86,0.34-1.86,1v14.95c0,0.84,0.65,1.25,1.96,1.25
				C119.17,31.64,119.89,31.22,119.89,30.38"/>
		</g>
	</g>
	<g>
		<path class="st0" d="M3.66,45.29v-6.4h2.27c0.52,0,0.97,0.08,1.36,0.25c0.39,0.17,0.71,0.4,0.97,0.68s0.46,0.63,0.59,1.01
			c0.13,0.39,0.2,0.8,0.2,1.24c0,0.49-0.07,0.93-0.22,1.32c-0.15,0.39-0.36,0.73-0.63,1.01c-0.27,0.28-0.6,0.5-0.98,0.65
			s-0.81,0.23-1.29,0.23H3.66z M8.02,42.08c0-0.34-0.05-0.65-0.14-0.93c-0.09-0.28-0.23-0.52-0.41-0.73s-0.4-0.36-0.66-0.47
			s-0.55-0.17-0.88-0.17H4.67v4.61h1.26c0.34,0,0.64-0.06,0.9-0.17c0.26-0.12,0.48-0.28,0.66-0.49c0.18-0.21,0.31-0.45,0.4-0.73
			S8.02,42.41,8.02,42.08z"/>
		<path class="st0" d="M11.77,38.89h0.88l2.52,6.4h-1.06l-0.68-1.74h-2.47l-0.67,1.74H9.23L11.77,38.89z M13.24,42.8l-1.03-2.75
			l-1.06,2.75H13.24z"/>
		<path class="st0" d="M20.04,39.79h-2.13v5.51h-1.02v-5.51h-2.14v-0.89h5.28V39.79z"/>
		<path class="st0" d="M22.14,38.89h0.88l2.52,6.4h-1.06l-0.68-1.74h-2.47l-0.67,1.74H19.6L22.14,38.89z M23.61,42.8l-1.03-2.75
			l-1.06,2.75H23.61z"/>
		<path class="st0" d="M27.88,42.05c0-0.38,0.07-0.77,0.21-1.15c0.14-0.38,0.34-0.72,0.61-1.03c0.27-0.3,0.59-0.55,0.98-0.73
			c0.38-0.19,0.82-0.28,1.31-0.28c0.58,0,1.08,0.13,1.5,0.39c0.41,0.26,0.73,0.59,0.94,1.01l-0.79,0.53
			c-0.09-0.19-0.2-0.35-0.32-0.49s-0.26-0.24-0.41-0.32c-0.15-0.08-0.31-0.13-0.47-0.17c-0.16-0.03-0.32-0.05-0.47-0.05
			c-0.34,0-0.63,0.07-0.88,0.2s-0.46,0.31-0.64,0.54c-0.17,0.22-0.3,0.47-0.39,0.75c-0.09,0.28-0.13,0.55-0.13,0.83
			c0,0.31,0.05,0.61,0.15,0.89c0.1,0.28,0.24,0.53,0.43,0.75c0.18,0.22,0.4,0.39,0.65,0.52s0.53,0.19,0.83,0.19
			c0.16,0,0.32-0.02,0.48-0.06c0.17-0.04,0.32-0.1,0.48-0.19c0.15-0.09,0.29-0.2,0.42-0.33c0.13-0.13,0.24-0.29,0.32-0.48l0.84,0.48
			c-0.1,0.24-0.25,0.45-0.43,0.63c-0.19,0.18-0.4,0.34-0.63,0.46c-0.23,0.13-0.48,0.22-0.74,0.29c-0.26,0.07-0.52,0.1-0.77,0.1
			c-0.45,0-0.86-0.1-1.23-0.29s-0.69-0.44-0.96-0.75c-0.27-0.31-0.48-0.66-0.63-1.05C27.96,42.86,27.88,42.46,27.88,42.05z"/>
		<path class="st0" d="M38.84,44.4v0.89h-4.39v-6.4h4.31v0.89h-3.3v1.82h2.86v0.84h-2.86v1.96H38.84z"/>
		<path class="st0" d="M40.9,40.79v4.51h-1.01v-6.4h0.79l3.66,4.61v-4.6h1.02v6.39h-0.84L40.9,40.79z"/>
		<path class="st0" d="M51.49,39.79h-2.13v5.51h-1.02v-5.51h-2.14v-0.89h5.28V39.79z"/>
		<path class="st0" d="M56.74,44.4v0.89h-4.39v-6.4h4.31v0.89h-3.3v1.82h2.86v0.84h-2.86v1.96H56.74z"/>
		<path class="st0" d="M57.78,45.29v-6.4h2.78c0.29,0,0.55,0.06,0.8,0.18c0.24,0.12,0.45,0.28,0.63,0.47
			c0.17,0.2,0.31,0.42,0.41,0.67c0.1,0.25,0.15,0.5,0.15,0.76c0,0.22-0.03,0.42-0.09,0.62s-0.14,0.38-0.25,0.55
			c-0.11,0.17-0.24,0.31-0.4,0.44s-0.33,0.21-0.51,0.28l1.5,2.43h-1.14l-1.39-2.23h-1.48v2.23H57.78z M58.79,42.17h1.77
			c0.14,0,0.27-0.03,0.39-0.09c0.12-0.06,0.22-0.15,0.3-0.26c0.08-0.11,0.15-0.24,0.2-0.38c0.05-0.14,0.07-0.3,0.07-0.46
			s-0.03-0.32-0.09-0.46c-0.06-0.14-0.13-0.27-0.23-0.38c-0.09-0.11-0.2-0.19-0.32-0.26c-0.12-0.06-0.25-0.09-0.38-0.09h-1.71V42.17
			z"/>
	</g>
</g>
</svg>
